<svg xmlns="http://www.w3.org/2000/svg" width="900" height="600" viewBox="0 0 900 600">
  <defs>
    <linearGradient id="bg" x1="0" x2="1" y1="0" y2="1">
      <stop offset="0" stop-color="#2b1b18"/>
      <stop offset="1" stop-color="#9a3d32"/>
    </linearGradient>
    <filter id="shadow" x="-20%" y="-20%" width="140%" height="140%">
      <feDropShadow dx="0" dy="14" stdDeviation="18" flood-color="#000" flood-opacity=".22"/>
    </filter>
  </defs>
  <rect width="900" height="600" fill="url(#bg)"/>
  <circle cx="120" cy="96" r="92" fill="#fff" opacity=".16"/>
  <circle cx="780" cy="105" r="120" fill="#fff" opacity=".12"/>
  <circle cx="760" cy="515" r="160" fill="#000" opacity=".06"/>
  
  <rect x="165" y="175" width="570" height="270" rx="34" fill="#191313" opacity=".88"/>
  <rect x="215" y="225" width="470" height="130" rx="18" fill="#fff8ee" opacity=".92"/>
  <path d="M240 384 C300 345 350 425 415 380 C480 340 535 425 595 382 C640 350 670 370 700 392" fill="none" stroke="#c66b4e" stroke-width="38" stroke-linecap="round"/>
  <circle cx="310" cy="290" r="34" fill="#f2c66e"/>
  <circle cx="450" cy="290" r="34" fill="#2f6f73"/>
  <circle cx="590" cy="290" r="34" fill="#c66b4e"/>

  <text x="56" y="535" font-family="-apple-system,BlinkMacSystemFont,Segoe UI,sans-serif" font-size="38" font-weight="800" fill="#fff" opacity=".92">AMC night</text>
</svg>