<svg xmlns="http://www.w3.org/2000/svg" width="900" height="600" viewBox="0 0 900 600">
  <defs>
    <linearGradient id="bg" x1="0" x2="1" y1="0" y2="1">
      <stop offset="0" stop-color="#4b3b62"/>
      <stop offset="1" stop-color="#d69a43"/>
    </linearGradient>
    <filter id="shadow" x="-20%" y="-20%" width="140%" height="140%">
      <feDropShadow dx="0" dy="14" stdDeviation="18" flood-color="#000" flood-opacity=".22"/>
    </filter>
  </defs>

  <rect width="900" height="600" fill="url(#bg)"/>
  <circle cx="120" cy="96" r="92" fill="#fff" opacity=".14"/>
  <circle cx="780" cy="110" r="120" fill="#fff" opacity=".12"/>
  <circle cx="760" cy="515" r="160" fill="#000" opacity=".06"/>

  <rect x="185" y="160" width="530" height="300" rx="46" fill="#fff8ee" opacity=".95" filter="url(#shadow)"/>

  <rect x="275" y="220" width="140" height="140" rx="22" fill="#2f6f73" transform="rotate(-8 345 290)"/>
  <rect x="386" y="205" width="140" height="140" rx="22" fill="#c66b4e" transform="rotate(5 456 275)"/>
  <rect x="500" y="230" width="140" height="140" rx="22" fill="#6d5f8f" transform="rotate(10 570 300)"/>

  <circle cx="323" cy="270" r="16" fill="#fff8ee"/>
  <circle cx="365" cy="312" r="16" fill="#fff8ee"/>

  <circle cx="430" cy="250" r="13" fill="#fff8ee"/>
  <circle cx="485" cy="250" r="13" fill="#fff8ee"/>
  <circle cx="458" cy="300" r="13" fill="#fff8ee"/>

  <circle cx="548" cy="270" r="13" fill="#fff8ee"/>
  <circle cx="592" cy="270" r="13" fill="#fff8ee"/>
  <circle cx="548" cy="322" r="13" fill="#fff8ee"/>
  <circle cx="592" cy="322" r="13" fill="#fff8ee"/>

  <path d="M250 405 C325 375 375 435 450 405 C525 375 575 435 650 405" fill="none" stroke="#241916" stroke-width="18" stroke-linecap="round" opacity=".22"/>

  <text x="56" y="535" font-family="-apple-system,BlinkMacSystemFont,Segoe UI,sans-serif" font-size="38" font-weight="800" fill="#fff" opacity=".92">board game night</text>
</svg>
